<svg width="50" height="50" viewBox="0 0 40 40" fill="none" xmlns="http://www.w3.org/2000/svg">
<path d="M31.0218 0H8.97818C4.01967 0 0 4.01967 0 8.97818V31.0218C0 35.9803 4.01967 40 8.97818 40H31.0218C35.9803 40 40 35.9803 40 31.0218V8.97818C40 4.01967 35.9803 0 31.0218 0Z" fill="#2A5AFC"/>
<path fill-rule="evenodd" clip-rule="evenodd" d="M8.95047 27.1701V12.8438H15.9889C16.7507 12.8349 17.506 12.9859 18.2058 13.2871C18.7456 13.508 19.2159 13.8704 19.567 14.3361C19.9182 14.8019 20.1371 15.3537 20.2009 15.9335C20.3088 16.5884 20.2517 17.2598 20.0346 17.8871C19.7941 18.4852 19.3466 18.9769 18.7738 19.2726L18.4967 19.425H18.6214C19.1432 19.6175 19.6037 19.9467 19.9546 20.3781C20.3056 20.8095 20.5342 21.3273 20.6166 21.8774C20.8119 22.8139 20.6901 23.7888 20.2702 24.6484C19.99 25.2526 19.563 25.7771 19.0281 26.174C18.4933 26.5708 17.8676 26.8276 17.2082 26.9207C16.6039 27.0229 15.9921 27.0739 15.3793 27.0731H8.95047V27.1701ZM12.2619 24.6761H15.3516C15.6587 24.6718 15.9648 24.6393 16.266 24.5791C16.6055 24.5377 16.9229 24.3891 17.1721 24.1548C17.4212 23.9206 17.5892 23.613 17.6515 23.2768C17.6884 23.0102 17.6884 22.7398 17.6515 22.4732C17.6404 22.1618 17.5332 21.8615 17.3447 21.6135C17.1562 21.3654 16.8955 21.1818 16.5985 21.0876C16.2648 20.9693 15.9135 20.9084 15.5594 20.9075H12.2619V24.6761ZM12.2619 18.4829H15.3793C15.8594 18.4995 16.336 18.3946 16.7648 18.178C16.912 18.1034 17.0414 17.9979 17.1442 17.8688C17.247 17.7397 17.3208 17.59 17.3606 17.4299C17.4173 17.1463 17.4173 16.8544 17.3606 16.5708C17.3409 16.319 17.2417 16.08 17.0774 15.8883C16.913 15.6965 16.692 15.5619 16.4461 15.504C15.9941 15.3839 15.5283 15.3234 15.0606 15.3239H12.2896L12.2619 18.4829Z" fill="white"/>
<path fill-rule="evenodd" clip-rule="evenodd" d="M31.9778 22.3485H24.496V22.7918C24.5306 23.0795 24.6101 23.3601 24.7316 23.6231C24.8859 23.9455 25.1169 24.2252 25.4043 24.4378C25.6918 24.6503 26.0268 24.7892 26.3803 24.8424C26.7917 24.9271 27.216 24.9271 27.6273 24.8424C27.9222 24.7864 28.2004 24.6636 28.4405 24.4835C28.6807 24.3034 28.8764 24.0707 29.0128 23.8033C29.0243 23.7766 29.0439 23.7543 29.0687 23.7394C29.0936 23.7245 29.1225 23.7177 29.1514 23.7201H31.867C31.867 23.8587 31.867 23.9972 31.77 24.1219C31.6041 24.6389 31.3248 25.1123 30.9525 25.5074C30.2059 26.3522 29.1758 26.8944 28.0568 27.0315C27.1659 27.1782 26.2538 27.131 25.3827 26.893C24.4784 26.6535 23.6552 26.1749 22.9996 25.5074C22.4861 24.9494 22.1404 24.2579 22.0021 23.5123C21.7064 22.1906 21.7637 20.8145 22.1683 19.522C22.4009 18.6793 22.8752 17.9233 23.5326 17.3471C24.19 16.7709 25.0018 16.3999 25.8677 16.2799C27.0073 16.0551 28.1879 16.1707 29.2622 16.6124C30.2393 17.0255 31.0289 17.7855 31.479 18.7461C31.7766 19.3847 31.9371 20.0785 31.9501 20.7828V22.3207C31.9917 22.293 31.9917 22.3207 31.9778 22.3485V22.3485ZM29.2068 20.575V20.284C29.1609 19.9148 29.0155 19.565 28.7861 19.2722C28.5567 18.9793 28.2519 18.7543 27.9044 18.6214C27.5211 18.4726 27.1083 18.4157 26.699 18.4551C26.3075 18.4619 25.9266 18.5838 25.6039 18.8055C25.2811 19.0273 25.0307 19.3391 24.884 19.7021C24.7958 19.914 24.7217 20.1316 24.6623 20.3533C24.6575 20.441 24.6575 20.5289 24.6623 20.6166L29.2068 20.575Z" fill="white"/>
<path fill-rule="evenodd" clip-rule="evenodd" d="M23.9834 15.0883V13.4257H29.7471V15.0745L23.9834 15.0883Z" fill="white"/>
</svg>
