<svg width="24" height="24" viewBox="0 0 40 41" fill="none" xmlns="http://www.w3.org/2000/svg">
<g clip-path="url(#clip0_6_136)">
<path d="M19.9975 0.5C8.95501 0.5 7.72649e-06 9.49 7.72649e-06 20.58C-0.00450382 24.7889 1.31379 28.8927 3.76859 32.3116C6.22338 35.7304 9.69052 38.2914 13.68 39.6325C14.68 39.8175 15.045 39.1975 15.045 38.665C15.045 38.1875 15.0275 36.925 15.0175 35.25C9.45501 36.4625 8.28001 32.5575 8.28001 32.5575C7.37251 30.2375 6.06001 29.62 6.06001 29.62C4.24251 28.375 6.19501 28.4 6.19501 28.4C8.20251 28.5425 9.25751 30.47 9.25751 30.47C11.0425 33.5375 13.94 32.6525 15.08 32.1375C15.26 30.84 15.7775 29.955 16.35 29.4525C11.91 28.945 7.24001 27.2225 7.24001 19.53C7.24001 17.3375 8.02001 15.545 9.30001 14.14C9.09251 13.6325 8.40751 11.59 9.49501 8.8275C9.49501 8.8275 11.175 8.2875 14.995 10.885C16.6269 10.439 18.3108 10.212 20.0025 10.21C21.6943 10.2134 23.3782 10.4412 25.01 10.8875C28.8275 8.29 30.505 8.83 30.505 8.83C31.595 11.595 30.91 13.635 30.705 14.1425C31.9875 15.5475 32.76 17.34 32.76 19.5325C32.76 27.245 28.085 28.9425 23.63 29.44C24.3475 30.06 24.9875 31.285 24.9875 33.1575C24.9875 35.8425 24.9625 38.0075 24.9625 38.665C24.9625 39.2025 25.3225 39.8275 26.3375 39.63C30.3231 38.2857 33.786 35.7238 36.2373 32.3058C38.6887 28.8877 40.0048 24.7862 40 20.58C40 9.49 31.045 0.5 19.9975 0.5Z" fill="#FEFBFB"/>
</g>
<defs>
<clipPath id="clip0_6_136">
<rect width="40" height="40" fill="white" transform="translate(0 0.5)"/>
</clipPath>
</defs>
</svg>
