<svg width="488" height="651" viewBox="0 0 488 651" fill="none" xmlns="http://www.w3.org/2000/svg">
<path fill-rule="evenodd" clip-rule="evenodd" d="M104.721 572.4C131.024 573.127 155.871 573.931 182.126 572.4C224.136 569.832 347.423 574.461 374.524 572.4C376.569 572.245 383.603 574.461 383.749 572.4C384.94 558.044 385.713 412.794 382.173 402.8C378.633 392.806 361.165 344.763 338.904 322.362C332.696 316.31 323.251 313.965 318.034 306.971C313.534 299.343 313.884 294.867 309.441 290.854C307.513 289.114 302.967 288.409 299.587 285.992C296.192 282.655 299.408 275.307 298.013 270.659C295.138 259.056 284.551 251.611 272.979 249.857C256.895 246.052 239.915 249.648 232.211 262.138C229.342 266.787 230.869 272.439 227.341 279.888C227.593 285.518 220.944 286.878 216.971 289.108L209.08 296.993C184.765 310.517 156.162 317.821 134.859 335.988C116.746 354.152 98.7285 375.147 90.6928 399.722C89.0295 406.419 88.4866 413.339 87.7973 420.182C85.829 440.178 80.3472 459.586 75.6298 479.064C70.2517 503.605 65.2395 529.655 72.4883 554.429C74.5766 559.671 99.9627 572.155 104.721 572.4V572.4Z" fill="white"/>
<path fill-rule="evenodd" clip-rule="evenodd" d="M230.816 264.139C231.027 263.458 231.934 263.649 232.003 264.296C232.684 270.699 231.826 277.392 231.001 283.754C230.606 286.824 230.379 290.016 229.777 293.044C229.7 293.368 229.626 293.693 229.557 294.017C229.754 294.364 230.34 294.756 230.619 295.024L231.83 296.189L234.262 298.514L248.528 312.177L255.509 318.863C257.902 321.156 260.62 323.352 262.721 325.91C263.86 327.298 264.118 329 262.995 330.487C262.442 331.22 261.446 331.757 260.435 331.867C260.83 332.41 261.135 333.027 261.33 333.71C261.725 335.102 260.299 336.814 258.782 336.231C257.06 335.578 255.637 334.407 253.884 333.846C252.098 333.285 250.202 333.157 248.355 333.473C247.517 333.613 246.691 333.817 245.885 334.084C254.482 337.996 263.782 340.242 273.268 340.563C275.199 340.628 277.129 340.602 279.049 340.475C282.285 340.269 285.495 339.777 288.642 339.002C291.128 338.386 293.571 337.61 295.954 336.678C297.126 336.224 298.275 335.711 299.394 335.14L299.492 335.084C299.746 334.927 304.412 332.311 304.494 331.918C304.575 331.526 304.575 331.387 304.423 331.046C304.272 330.704 303.849 330.467 303.849 330.467C302.408 329.858 300.913 329.291 299.339 329.281C295.712 329.259 291.757 331.91 288.758 333.714C285.464 335.697 282.434 338.016 279.264 340.166C279.196 340.212 279.115 340.238 279.032 340.238C278.697 340.238 278.388 339.828 278.603 339.511C280.875 336.203 283.941 333.451 287.149 331.046L288.443 330.087C291.381 327.921 294.817 325.522 298.39 325C302.765 324.363 307.338 327.059 311.242 328.638L318.158 331.437C319.39 331.934 320.732 332.36 321.972 332.924L319.075 323.961C317.627 319.478 316.181 314.994 314.752 310.507L314.475 309.627C313.05 305.074 311.743 300.336 309.37 296.175C308.802 295.176 308.154 294.238 307.513 293.292C306.846 292.311 306.598 291.228 305.76 290.352C304.103 288.616 301.726 287.595 299.459 286.93C298.904 286.768 299.069 286.046 299.587 285.992C301.915 285.749 304.136 286.285 306.238 287.256L307.113 287.668C309.101 288.598 311.041 289.464 312.517 291.134C315.884 294.947 317.635 299.749 319.241 304.487L319.67 305.759C320.272 305.564 324.357 306.796 324.868 307.087C340.183 313.489 351.978 325.404 360.606 339.366C370.057 354.666 375.201 372.149 379.451 389.451C380.76 394.792 382.017 400.147 383.22 405.513C377.852 407.554 372.149 408.623 367.124 411.498C365.211 412.593 366.939 415.531 368.859 414.432C373.564 411.739 378.924 410.743 383.962 408.852C386.707 421.274 389.106 433.769 391.156 446.321C397.407 484.828 401.354 523.965 401.106 562.998C401.088 563.93 400.833 564.843 400.365 565.653C400.615 565.548 400.831 565.378 400.99 565.16C402.574 562.701 406.549 564.984 404.955 567.455L404.721 567.813C403.525 569.635 402.409 571.027 400.306 572.056C398.188 573.093 395.894 573.268 393.558 573.328C385.616 573.535 377.667 573.67 369.715 573.766C368.625 565.357 368.182 556.87 366.679 548.512C366.293 546.364 362.981 547.274 363.367 549.416C364.817 557.487 365.28 565.681 366.293 573.806C349.294 573.987 332.287 573.989 315.301 574.037C292.284 574.104 269.266 574.055 246.249 574.043L236.383 574.039C209.793 574.039 183.201 573.955 156.611 573.782L150.288 573.738C147.773 559.078 146.058 544.292 146.028 529.396C146.024 527.21 142.587 527.206 142.592 529.396C142.624 544.276 144.316 559.062 146.809 573.718C140.513 573.692 134.22 573.714 127.923 573.935L124.719 574.047C118.307 574.264 111.882 574.397 105.483 573.893C98.3767 573.328 91.1909 572.036 84.8205 568.729C82.0078 567.267 79.4562 565.361 77.2667 563.085C79.4606 561.823 81.6871 560.611 83.814 559.237C85.6562 558.044 83.936 555.102 82.0775 556.304C79.788 557.784 77.3805 559.076 75.0219 560.447C73.2941 558.161 71.8891 555.654 70.8454 552.994C69.1659 548.735 68.5172 544.154 67.954 539.643C67.2891 534.33 67.0146 528.976 67.0146 523.625C67.0146 512.371 68.2143 501.153 69.8836 490.034C71.4818 479.385 73.5945 468.818 75.8291 458.288L76.1341 456.851C78.3382 446.5 80.4387 436.116 82.9661 425.834C85.3004 416.329 87.9986 406.865 91.2153 397.586C94.0783 399.336 97.0754 400.867 99.8936 402.69C101.75 403.891 103.472 400.952 101.628 399.758C98.6207 397.811 95.4142 396.196 92.3784 394.295C95.9774 384.359 100.199 374.655 105.26 365.36C115.398 346.748 129.058 330.095 146.557 317.807C155.336 311.636 164.906 306.645 175.015 302.964C185.304 299.227 195.965 297.181 206.867 296.34C207.178 296.316 207.353 296.601 207.341 296.864L207.337 296.912L207.766 296.981C207.925 295.916 208.252 294.883 208.874 293.937C210.291 291.779 212.979 290.394 215.129 289.07L215.637 288.757C218.193 287.191 220.889 285.648 223.862 285.1C223.966 285.082 224.029 285.188 223.959 285.269C221.999 287.491 219.494 289.189 217.197 291.067L216.67 291.503C214.765 293.05 212.111 294.809 212.04 297.396C211.959 300.447 212.589 303.619 212.817 306.659C213.045 309.691 213.203 312.719 213.284 315.759C213.576 326.65 213.231 337.548 212.25 348.4L216.562 345.544C223.274 341.104 230.009 336.673 236.881 332.516C241.042 329.999 245.714 327.845 250.698 327.943C252.215 327.971 253.722 328.189 255.183 328.592C253.555 327.069 251.995 325.446 250.401 323.913L242.528 316.338L234.96 309.05L227.388 301.763C225.043 299.5 222.294 297.415 222.542 293.848C222.746 291.003 224.21 288.17 225.21 285.427C225.352 285.032 225.48 284.642 225.6 284.254C227.621 277.621 228.766 270.746 230.816 264.139ZM328.627 548.741C327.062 547.194 324.632 549.595 326.198 551.144L327.025 551.958C328.41 553.322 329.78 554.728 330.738 556.414L330.878 556.669C331.909 558.604 334.876 556.89 333.845 554.955C332.57 552.564 330.541 550.633 328.627 548.741ZM261.556 548.305C256.678 547.364 251.663 547.364 246.786 548.305C244.616 548.715 245.535 551.99 247.701 551.58C251.975 550.758 256.369 550.758 260.643 551.58C262.804 551.988 263.729 548.715 261.556 548.305V548.305ZM194.252 514.061C192.109 513.522 191.194 516.8 193.342 517.336L194.399 517.597C197.99 518.475 201.41 519.128 205.141 518.315C207.272 517.848 206.41 514.654 204.311 515.021L204.228 515.037C200.775 515.793 197.595 514.897 194.255 514.061H194.252ZM313.782 491.993C312.194 490.468 309.762 492.869 311.352 494.396C313.335 496.303 315.673 497.752 318.505 497.828C320.683 497.888 320.716 494.593 318.603 494.437L318.505 494.431C316.606 494.378 315.093 493.255 313.782 491.993V491.993ZM111.526 482.919C113.505 481.943 111.766 479.011 109.792 479.988L97.9152 485.857C95.9367 486.836 97.6752 489.767 99.6496 488.791L111.524 482.919H111.526ZM346.218 483.669C344.005 483.607 344.007 487.004 346.218 487.067C348.296 487.123 350.427 487.902 352.279 488.791C354.26 489.741 356.004 486.813 354.014 485.857C351.592 484.696 348.934 483.743 346.218 483.669ZM235.244 467.265C237.062 466.044 235.346 463.098 233.51 464.332C231.005 466.016 228.734 468.003 226.269 469.737L225.592 470.203C223.772 471.424 225.491 474.37 227.327 473.136C230.059 471.3 232.512 469.102 235.244 467.265V467.265ZM363.044 442.576C360.831 442.574 360.829 445.971 363.044 445.973L363.462 445.971C365.288 445.961 367.212 445.911 368.91 446.632L369.105 446.719C371.093 447.645 372.84 444.717 370.839 443.785C368.351 442.628 365.748 442.576 363.044 442.576ZM172.191 440.148L172.48 440.042C174.545 439.308 173.655 436.023 171.565 436.767C168.417 437.884 165.969 439.996 163.238 441.828C161.418 443.05 163.136 445.995 164.972 444.764C167.325 443.182 169.515 441.183 172.191 440.148V440.148ZM301.094 431.31L301.556 431.064C303.524 430.064 301.787 427.132 299.823 428.131C298.262 428.925 296.867 429.979 295.336 430.821L294.874 431.066C292.906 432.067 294.642 434.999 296.608 434C298.168 433.206 299.563 432.151 301.094 431.31ZM248.813 398.404L248.459 398.066C246.877 396.535 244.445 398.936 246.029 400.469C249.984 404.295 254.659 407.201 259.374 410.009L260.232 410.518C262.133 411.645 263.864 408.709 261.967 407.584L260.708 406.837C256.515 404.337 252.371 401.755 248.813 398.404V398.404ZM153.712 395.233C155.044 393.521 152.146 391.848 150.792 393.459L150.745 393.517C149.356 395.298 147.712 396.909 145.991 398.38L145.666 398.655C144.643 399.515 142.779 401.362 141.341 401.482C139.153 401.667 139.133 405.065 141.341 404.88C143.568 404.693 145.483 403.144 147.165 401.816C149.607 399.89 151.806 397.68 153.712 395.233V395.233ZM336.545 382.856C338.141 381.373 335.783 379.015 334.172 380.405L334.115 380.455C331.132 383.226 326.838 383.969 322.997 384.91C320.852 385.436 321.761 388.711 323.91 388.187L325.661 387.759C329.587 386.79 333.526 385.661 336.545 382.856V382.856ZM268.485 361.428C266.34 360.889 265.425 364.166 267.57 364.705C271.216 365.619 274.669 366.802 278.048 368.446C280.025 369.408 281.769 366.479 279.783 365.512C276.172 363.764 272.385 362.395 268.485 361.428V361.428ZM303.591 289.814C303.54 289.661 303.703 289.486 303.861 289.54C307.719 290.963 305.669 295.956 304.469 298.946L304.254 299.49C302.375 304.282 299.752 308.944 296.891 313.233C293.891 317.73 290.576 322.013 286.97 326.053C285.408 327.805 283.789 329.507 282.115 331.156L281.484 331.773C279.793 333.416 277.611 336.304 274.986 335.986C272.16 335.651 270.582 332.665 272.644 330.399C274.101 328.793 276.121 327.513 277.747 326.053C279.36 324.61 280.929 323.121 282.452 321.586C285.583 318.443 288.514 315.111 291.228 311.61C293.841 308.222 296.342 304.74 298.617 301.122L299.069 300.396C300.799 297.579 304.795 293.44 303.591 289.814V289.814ZM166.951 325.4C165.121 324.162 163.401 327.103 165.216 328.331C168.557 330.589 171.499 333.324 175.115 335.181C177.05 336.175 178.775 333.326 176.918 332.285L176.849 332.247C173.236 330.391 170.292 327.654 166.951 325.4Z" fill="#5648FA"/>
<path fill-rule="evenodd" clip-rule="evenodd" d="M283.268 292.789C273.733 292.844 265.629 290.169 259.445 285.745C251.729 283.024 242.422 278.829 236.769 274.427C234.563 274.981 231.926 272.667 230.238 271.445C219.746 263.699 211.509 252.361 209.069 241.005C205.302 245.706 199.94 245.901 194.806 243.564C184.041 237.531 184.444 224.822 188.319 215.328C180.172 197.255 174.523 149.547 186.961 130.292C189.505 127.411 193.24 125.689 195.928 122.734C198.319 120.154 200.594 117.516 203.376 115.472C211.867 109.083 226.491 105.683 235.649 104.084C273.874 95.914 303.243 110.598 337.867 122.983C335.874 127.909 333.119 132.402 329.959 136.591C338.554 139.762 334.607 146.895 327.938 150.51L323.967 148.601C330.156 170.492 344.4 224.925 338.255 242.405C333.353 269.677 311.846 292.986 283.268 292.789" fill="white"/>
<path fill-rule="evenodd" clip-rule="evenodd" d="M288.79 295.136C276.409 296.392 261.702 293.501 253.449 283.557C253.221 283.288 253.093 282.949 253.087 282.598C253.082 282.243 253.197 281.897 253.414 281.614C253.633 281.33 253.95 281.136 254.304 281.069C254.659 281.001 255.026 281.064 255.336 281.246L256.094 281.662C261.733 284.74 267.585 287.364 273.973 288.487C280.551 289.645 287.247 289.516 293.766 288.047C305.64 285.373 315.25 278.55 322.324 269.554C330.215 259.516 334.955 246.773 336.165 234.028C337.629 218.585 334.231 203.235 330.718 188.28C327.027 172.567 322.991 156.935 318.304 141.484C318.17 141.063 318.123 140.621 318.164 140.182C316.781 139.648 315.311 139.796 313.845 140.284C311.169 141.177 308.503 143.192 306.281 144.854C305.476 145.456 304.725 146.017 304.052 146.471C301.295 148.336 298.282 149.678 294.913 149.889C291.407 150.11 287.971 149.031 284.787 147.685C283.17 146.999 281.58 146.29 279.994 145.581C275.482 143.568 271.023 141.572 266.149 140.276C259.618 138.537 252.878 137.686 246.115 137.745C234.045 137.855 221.938 140.925 214.543 151.016C211.546 155.105 209.592 159.802 211.115 164.846C211.944 167.59 213.508 170.082 215.216 172.374L215.802 173.154C216.737 174.412 217.552 175.666 217.796 176.998C218.002 178.115 217.841 179.298 217.034 180.594C216.528 181.408 215.881 182.141 215.23 182.869C214.761 183.395 214.291 183.92 213.886 184.484C213.062 185.626 212.358 186.848 211.784 188.131C210.674 190.635 210.204 193.329 210.106 196.047C209.986 199.327 210.454 202.533 210.916 205.746C211.243 208.023 211.57 210.303 211.703 212.61C211.731 212.942 211.633 213.272 211.428 213.536C211.211 213.807 210.895 213.984 210.548 214.026C210.438 214.04 210.327 214.042 210.216 214.032C210.271 214.255 210.32 214.476 210.363 214.701C210.138 214.415 209.899 214.139 209.649 213.874L209.6 213.847C209.334 213.704 209.119 213.484 208.984 213.217C208.624 212.887 208.247 212.576 207.853 212.286C205.794 210.767 203.39 209.867 200.977 209.837C198.653 209.809 196.32 210.59 194.529 212.244C190.965 215.531 189.921 220.894 189.885 225.499C189.846 230.201 190.948 235.843 195.094 238.76C196.758 239.932 198.789 240.635 200.834 240.655C202.53 240.673 204.155 240.078 205.753 239.514C206.245 239.339 206.735 239.166 207.225 239.009C207.78 238.831 208.289 238.841 208.73 238.971C209.226 239.12 209.649 239.423 209.964 239.829C210.285 240.248 210.487 240.744 210.549 241.265C210.612 241.787 210.533 242.316 210.32 242.797C210.265 242.916 210.207 243.034 210.147 243.151L211.058 244.633C214.549 250.293 218.103 255.851 222.762 260.717C225.436 263.51 228.27 266.146 231.381 268.453L231.828 268.783C232.097 268.978 232.394 269.217 232.713 269.474C233.62 270.207 234.706 271.192 235.72 271.23C236.021 271.242 236.286 271.204 236.523 271.174C237.101 271.097 237.587 271.075 238.063 271.268C238.447 271.423 238.843 271.712 239.252 272.307C239.529 272.711 239.671 273.217 239.671 273.729C239.671 274.246 239.527 274.76 239.27 275.168C238.744 276.012 238.103 276.534 237.41 276.832C236.637 277.163 235.783 277.213 234.895 277.051C232.707 276.647 230.285 274.855 228.746 273.687L228.447 273.46C225.033 270.886 221.796 268.037 218.951 264.851C214.106 259.426 209.755 253.032 207.52 246.046C205.944 247.069 203.998 247.555 201.965 247.631C199 247.742 195.863 246.988 193.549 245.903C188.453 243.516 185.359 238.997 183.909 233.801C182.223 227.768 182.77 220.832 184.905 215.411C184.966 215.254 185.031 215.097 185.096 214.938C178.533 198.497 176.514 180.239 177.075 162.694C177.339 154.48 177.904 145.862 179.865 137.853C180.743 134.263 182.27 130.843 184.706 128.018C186.097 126.405 187.801 125.151 189.515 123.899C190.999 122.814 192.488 121.735 193.74 120.383L194.332 119.74L194.718 119.32C196.88 116.963 198.988 114.674 201.611 112.742C204.657 110.499 208.018 108.743 211.509 107.288C219.033 104.15 227.129 102.267 235.137 100.813C252.465 97.6621 270.252 97.5073 287.367 101.934C295.325 103.991 303.048 106.808 310.756 109.621L312.904 110.405C318.896 112.585 324.89 114.757 330.884 116.927L339.241 119.957C339.845 120.176 340.437 120.648 340.774 121.235C341.104 121.807 341.201 122.474 340.935 123.139C339.247 127.388 337.07 131.431 334.445 135.187C335.358 135.8 336.132 136.616 336.72 137.572C337.464 138.778 337.903 140.208 337.934 141.725C338.034 146.805 333.357 150.248 329.477 152.738C329.155 152.95 328.792 153.097 328.412 153.17C332.171 167.379 335.77 181.635 338.827 196.003L339.038 197C342.188 212.037 344.219 227.384 341.24 242.622C338.676 255.743 332.716 268.407 323.406 278.182C314.282 287.762 302.037 293.792 288.79 295.136V295.136ZM207.268 208.629C205.647 203.544 204.789 198.01 205.409 192.857C205.785 189.621 206.798 186.49 208.39 183.638C209.324 182.012 210.416 180.479 211.652 179.063L212.073 178.583C212.286 178.34 212.5 178.115 212.565 177.831C212.603 177.669 212.565 177.49 212.463 177.275C212.239 176.801 211.825 176.345 211.436 175.899C211.197 175.629 210.967 175.35 210.747 175.065C207.195 170.311 204.545 164.651 205.405 158.623C206.245 152.74 210.145 147.257 214.297 143.126C223.439 134.026 237.611 131.934 250.027 132.436C257.255 132.73 264.472 133.987 271.354 136.188C274.75 137.279 278.069 138.588 281.291 140.108L282.005 140.447L283.16 141.006C285.681 142.227 288.213 143.461 290.948 144.126C296.293 145.422 299.917 142.69 303.727 139.935C305.033 138.991 306.358 138.034 307.767 137.194L308.058 137.023C310.6 135.567 313.642 134.586 316.562 134.632C319.099 134.669 321.547 135.47 323.54 137.363C323.949 137.751 324.184 138.175 324.294 138.597C324.516 138.904 324.693 139.268 324.809 139.698C325.524 142.346 326.234 144.996 326.942 147.646L327.521 147.279C329.237 146.176 331.102 144.918 331.946 143.073C332.269 142.364 332.224 141.185 331.816 140.315C331.691 140.017 331.486 139.76 331.222 139.571C331.019 139.443 330.778 139.387 330.539 139.412C329.948 139.493 329.345 139.417 328.794 139.191C328.239 138.964 327.769 138.572 327.45 138.068C327.136 137.57 327.004 136.979 327.078 136.397C327.141 135.88 327.367 135.342 327.812 134.835C330.743 131.521 333.189 127.816 335.077 123.829L322.686 119.296C318.268 117.68 313.848 116.068 309.427 114.459L307.005 113.581C298.967 110.668 290.881 107.817 282.521 105.94C265.905 102.211 248.579 103.087 232.011 106.599L231.009 106.812C224.057 108.311 217.01 110.123 210.629 113.276C207.496 114.823 204.519 116.704 201.961 119.083C200.832 120.132 199.812 121.281 198.789 122.428C197.359 124.036 195.926 125.641 194.224 126.995L192.644 128.245C190.294 130.118 188.175 131.942 186.849 134.843C185.462 137.877 184.799 141.233 184.261 144.498C182.898 152.728 182.362 161.088 182.412 169.425C182.5 183.419 184.649 197.132 187.368 210.793C189.547 207.709 192.612 205.318 196.542 204.808C198.509 204.554 200.508 204.768 202.374 205.433C204.24 206.098 205.918 207.194 207.268 208.629V208.629ZM203.15 225.248C200.281 224.149 197.266 223.789 194.23 224.314C193.928 224.367 193.617 224.311 193.354 224.157C193.098 224.009 192.897 223.783 192.78 223.514C192.651 223.227 192.642 222.9 192.755 222.607C192.869 222.313 193.096 222.075 193.386 221.947C196.674 220.396 200.33 219.71 203.958 220.199L204.315 220.249C206.17 220.52 208.779 221.093 210.735 222.22C212.272 223.104 213.396 224.324 213.675 225.917C213.821 226.749 213.614 227.615 213.128 228.244C212.66 228.851 211.944 229.256 211.019 229.23C209.385 229.184 208.417 228.501 207.254 227.617L206.816 227.289C205.694 226.448 204.461 225.761 203.15 225.248V225.248Z" fill="#5648FA"/>
<path fill-rule="evenodd" clip-rule="evenodd" d="M291.076 257.736C288.162 256.56 285.623 254.63 283.727 252.148C283.437 251.784 283.226 251.365 283.108 250.916C282.989 250.468 282.966 250 283.04 249.542C283.195 248.604 283.756 247.756 284.52 247.185C285.287 246.615 286.247 246.333 287.174 246.476C287.981 246.6 288.782 247.036 289.419 247.943L289.551 248.123C290.656 249.618 292.111 250.825 293.792 251.642C295.419 252.432 297.24 252.748 299.042 252.554C302.576 252.16 305.01 250.271 307.599 247.706C307.92 247.382 308.241 247.049 308.562 246.709C308.751 246.421 309.034 246.207 309.364 246.1C309.721 245.989 310.106 245.993 310.461 246.113C310.816 246.233 311.122 246.463 311.336 246.767C311.533 247.055 311.647 247.41 311.61 247.82C311.372 250.478 309.967 252.849 307.971 254.712C305.752 256.781 302.812 258.212 300.045 258.714C296.997 259.267 293.89 258.871 291.076 257.736V257.736ZM301.484 216.731C304.728 218.682 309.671 223.227 306.181 228.059C302.072 232.319 296.159 227.434 293.245 225.224C290.543 223.512 287.505 227.916 290.012 229.916C311.074 245.329 319.62 217.241 303.125 214.44C301.307 214.131 300.634 216.128 301.484 216.731V216.731ZM263.746 198.802C264.104 194.404 270.879 193.405 271.554 197.757C272.156 201.655 271.446 205.238 269.669 208.748C267.973 212.099 263.707 210.536 263.384 207.482C262.951 203.389 263.522 201.539 263.746 198.802V198.802ZM315.321 196.855C316.267 195.632 317.631 194.798 319.264 195.268C324.37 196.745 322.865 203.91 321.071 207.398C320.097 209.291 316.948 209.771 315.525 208.103C313.207 205.384 312.094 199.953 315.045 197.273C315.124 197.136 315.213 196.996 315.321 196.855ZM269.598 179.559L270.405 179.419C272.9 178.993 276.001 178.583 277.766 180.564C278.703 181.617 279.024 183.572 277.766 184.579C275.553 186.347 273.105 185.664 270.454 185.812C268.289 185.935 266.146 186.296 264.063 186.889C259.443 188.195 255.679 190.576 251.735 193.192C251.218 193.534 250.69 192.881 250.936 192.403C253.213 187.992 257.625 184.372 262.046 182.163C264.407 180.984 266.987 180.008 269.598 179.559ZM310.667 177.584L311.285 177.709C318.003 179.095 326.73 181.868 329.91 188.392C330.032 189.314 329.904 189.511 329.801 189.64L329.766 189.684C329.679 189.795 329.611 189.945 329.207 190.072C329.093 190.045 328.979 190.017 328.865 189.988C327.407 189.61 326.254 189.089 325.138 188.549L323.926 187.96C322.521 187.277 321.104 186.622 319.601 186.138C316.398 185.101 313.099 184.381 309.752 183.988C309.038 183.918 308.356 183.661 307.775 183.244C307.223 182.834 306.832 182.247 306.669 181.583C306.433 180.644 306.503 179.935 307.011 179.087C307.393 178.452 307.942 178.012 308.571 177.759C309.237 177.499 309.966 177.438 310.667 177.584V177.584Z" fill="#5648FA"/>
<path fill-rule="evenodd" clip-rule="evenodd" d="M207.67 213.074C210.706 213.074 211.949 220.062 211.949 220.062C219.671 233.225 227.105 246.349 240.366 255.405C255.09 261.238 269.569 271.17 286.344 272.259C293.908 271.475 296.124 264.632 305.466 267.039C311.423 268.471 318.115 271.292 323.623 267.215C328.28 264.208 331.555 259.649 335.573 255.964C335.777 255.298 337.11 262.315 336.708 264.688L336.397 266.034C333.91 276.894 331.395 289.673 320.266 295.642C316.877 297.409 312.119 299.112 308.357 298.116C288.477 301.25 266.914 298.958 249.496 289.155C243.366 287.579 238.805 282.747 233.976 279.094C222.166 268.869 208.632 255.915 207.372 240.382C206.111 224.848 206.672 213.074 207.67 213.074V213.074ZM267.735 243.747C274.502 233.006 287.946 234.75 298.406 239.644C304.185 235.764 311.81 236.48 318.078 239.212L318.076 239.214C323.853 242.339 328.227 247.466 332.247 252.371C333.225 253.675 333.615 255.425 332.239 256.068C325.758 261.348 312.294 258.25 306.181 254.324C301.773 253.972 302.741 247.786 297.652 252.116C294.256 255.27 289.99 257.227 285.356 258.387C274.996 261.903 265.458 261.318 256.436 255.839C255.275 255.726 250.521 253.068 252.211 252.122C254.047 252.612 264.228 246.838 267.735 243.747V243.747Z" fill="white"/>
<path fill-rule="evenodd" clip-rule="evenodd" d="M206.089 224.621C206.158 224.057 207.044 224.028 207.065 224.621C207.475 237.048 211.57 250.675 218.494 261.316C235.133 288.174 269.095 301.628 301.785 297.007C325.673 296.685 328.225 283.306 334.162 264.619C337.245 262.12 338.759 263.014 337.802 265.948C330.441 288.493 327.92 301.425 298.798 301.18C252.036 307.778 201.324 269.982 206.089 224.621V224.621ZM272.154 234.643C279.783 231.276 288.861 231.752 295.234 236.407L295.683 236.508C296.8 236.755 297.869 236.942 299.124 236.815C315.986 228.041 327.245 243.345 335.89 254.804C336.543 254.826 337.074 255.333 336.897 255.925L337.173 256.217C336.086 259.104 334.117 261.893 331.427 263.643C322.605 275.256 316.017 271.626 304.522 266.844C292.702 265.096 292.225 278.867 275.736 272.558L275.114 272.359C269.689 270.587 263.463 267.901 259.518 264.019C259.39 263.892 259.516 263.647 259.714 263.711C268.862 266.438 280.626 275.341 289.941 269.343C292.296 267.78 294.41 265.885 297.042 264.708C312.068 259.739 317.346 279.365 330.496 258.989C319.788 260.834 307.723 259 299.719 251.794C287.757 266.036 264.474 263.753 249.669 254.909C247.644 255.196 244.649 253.217 246.513 251.332C248.553 249.729 251.78 250.358 254.287 249.488C262.29 246.673 264.179 237.701 272.154 234.643V234.643ZM298.9 240.599C290.443 234.653 277.798 233.651 269.705 240.665C264.651 245.684 261.373 252.883 253.225 254.211C267.217 262.172 287.32 262.307 298.093 249.638C298.432 248.543 300.185 249.016 300.397 249.968C308.111 255.288 317.977 258.115 327.586 256.484C329.132 256.233 330.659 255.877 332.155 255.417L330.738 253.49C323.196 243.291 313.497 231.414 299.116 239.803C298.79 239.966 298.652 239.55 298.611 239.335L298.434 239.464C298.562 239.727 299.622 240.595 298.9 240.599V240.599ZM333.526 258.308C333.592 258.368 333.652 258.436 333.703 258.509C333.94 258.389 334.184 258.264 334.437 258.146L334.369 258.097C334.097 258.172 333.814 258.242 333.526 258.308V258.308ZM207.176 209.2L207.174 208.792C207.174 204.689 208.289 209.861 208.791 210.88C210.942 214.709 212.744 218.501 215.023 222.236C224.169 238.501 225.584 245.55 244.01 254.814C245.381 255.974 243.941 258.053 242.241 257.625C239.697 256.986 237.298 255.385 235.084 254.093C222.536 247.695 217.855 234.645 212.225 223.287C210.572 218.782 206.757 213.978 207.176 209.2V209.2Z" fill="#5648FA"/>
<path fill-rule="evenodd" clip-rule="evenodd" d="M347.137 205.654C343.042 233.04 314.451 236.068 309.372 208.881C310.187 208.529 310.773 207.834 310.651 206.486C310.622 200.558 312.483 194.297 317.889 191.002C323.477 187.603 330.014 187.265 336.48 187.351C348.818 187.062 348.56 197.257 347.137 205.654ZM304.896 193.743C301.023 193.582 296.125 193.717 292.656 196.049C291.702 193.512 289.225 190.801 286.72 189.351C296.027 189.62 305.606 188.716 314.98 188.012C312.582 189.658 310.629 191.858 309.29 194.422C308.032 193.759 306.228 193.819 304.896 193.743M287.829 208.557C277.09 245.093 250.289 229.168 247.367 224.486C242.097 216.739 241.105 197.904 245.696 192.867C252.268 188.312 261.57 189.485 269.333 189.373C283.597 189.564 293.725 193.781 287.829 208.557ZM359.815 191.754C356.899 191.376 353.78 191.3 351.069 192.569C350.234 189.061 347.611 186.128 344.652 184.836C344.292 184.394 344.347 184.153 343.123 184.221C335.608 181.987 327.198 183.168 319.976 185.459C308.569 186.407 296.602 187.156 285.1 188.464C274.325 183.682 241.81 182.979 239.789 194.77C237.247 194.394 232.918 192.419 230.783 195.099C215.117 192.473 198.927 196.124 183.191 197.747C179.232 198.471 177.193 206.24 181.686 206.134C184.214 205.455 181.609 201.296 185.013 200.982C200.194 199.343 215.043 197.018 230.381 196.745C229.848 199.363 240.525 199.534 240.684 198.004C240.706 198.017 240.73 198.025 240.753 198.035C238.116 207.753 240.497 221.744 245.265 227.772C251.946 235.664 268.719 237.928 276.155 232.849C285.748 228.163 295.73 204.637 292.926 196.819C298.013 195.226 303.044 195.704 308.325 196.518C307.115 199.893 305.028 208.201 308.032 208.923C307.481 225.421 322.668 235.714 336.669 228.947C348.79 223.323 353.027 205.521 351.545 194.717C353.054 197.599 365.719 194.462 359.815 191.754" fill="#5648FA"/>
</svg>
