<svg width="40" height="41" viewBox="0 0 40 41" fill="none" xmlns="http://www.w3.org/2000/svg">
<path d="M34.1252 13.5077C34.1424 13.8162 34.1424 14.1246 34.1424 14.416C34.138 16.3138 33.861 18.2011 33.3197 20.0201C32.1791 24.2119 29.6747 27.9043 26.2019 30.5143C22.7292 33.1243 18.486 34.5032 14.1423 34.4332C10.3186 34.4375 6.57508 33.3364 3.36257 31.2626C3.91974 31.3315 4.48065 31.3659 5.04207 31.3654C8.20612 31.3684 11.279 30.3059 13.7654 28.3491C12.3009 28.3216 10.8815 27.8379 9.70492 26.9655C8.52835 26.0931 7.65323 24.8753 7.20153 23.482C7.63758 23.5567 8.07884 23.5968 8.5212 23.602C9.15283 23.6043 9.78165 23.5178 10.3892 23.3449C8.88512 23.0471 7.52048 22.2636 6.50493 21.1149C5.48938 19.9663 4.87911 18.5159 4.7679 16.9867C4.7394 16.8111 4.72791 16.6332 4.73358 16.4554V16.3697C5.7103 16.9134 6.80381 17.2132 7.92122 17.2438C6.95946 16.6027 6.17131 15.7335 5.62709 14.7138C5.08286 13.6941 4.79947 12.5556 4.8022 11.3998C4.80097 10.1552 5.12596 8.93202 5.74477 7.85219C7.50979 10.0269 9.71305 11.8056 12.2111 13.0723C14.7092 14.3391 17.446 15.0655 20.2434 15.2043C19.8894 13.6963 20.0434 12.1136 20.6813 10.7021C21.3193 9.29051 22.4055 8.12915 23.7713 7.39839C25.1372 6.66762 26.7061 6.40835 28.2344 6.66085C29.7626 6.91336 31.1648 7.6635 32.2229 8.79475C33.8009 8.48333 35.3138 7.90367 36.6959 7.08095C36.7554 8.2741 36.5565 9.46602 36.1128 10.5752C35.6691 11.6844 34.9911 12.6847 34.1252 13.5077V13.5077Z" fill="#6563FF"/>
</svg>
