<svg width="50" height="50" viewBox="0 0 40 40" fill="none" xmlns="http://www.w3.org/2000/svg">
<path d="M40 8.8475C38.4953 9.50376 36.904 9.9399 35.275 10.1425C36.9917 9.12407 38.2752 7.51141 38.8825 5.61C37.275 6.56334 35.5163 7.23469 33.6825 7.595C32.5581 6.39445 31.0986 5.5598 29.4937 5.19949C27.8888 4.83918 26.2126 4.96986 24.6829 5.57456C23.1533 6.17926 21.8408 7.23003 20.9161 8.59034C19.9913 9.95065 19.4971 11.5576 19.4975 13.2025C19.4975 13.8525 19.5525 14.4775 19.6875 15.0725C16.4252 14.9126 13.2334 14.0659 10.3208 12.5878C7.40811 11.1097 4.84023 9.03354 2.785 6.495C1.73205 8.29965 1.40652 10.4378 1.87471 12.474C2.34289 14.5102 3.56959 16.2915 5.305 17.455C4.00689 17.4202 2.73618 17.0738 1.6 16.445V16.535C1.60217 18.4286 2.25666 20.2636 3.45329 21.7311C4.64992 23.1987 6.31562 24.2092 8.17 24.5925C7.46847 24.7774 6.74547 24.8682 6.02 24.8625C5.49897 24.8718 4.97846 24.8248 4.4675 24.7225C4.99735 26.3501 6.01873 27.7733 7.39098 28.7964C8.76324 29.8194 10.4189 30.3919 12.13 30.435C9.22735 32.7051 5.64743 33.9365 1.9625 33.9325C1.29 33.9325 0.645 33.9025 0 33.82C3.74971 36.2364 8.11919 37.5145 12.58 37.5C27.67 37.5 35.92 25 35.92 14.165C35.92 13.8025 35.9075 13.4525 35.89 13.105C37.5074 11.9475 38.9002 10.5047 40 8.8475V8.8475Z" fill="#03A9F4"/>
</svg>
